<?xml version="1.0" encoding="iso-8859-1"?>
<!-- Generator: Adobe Illustrator 21.1.0, SVG Export Plug-In . SVG Version: 6.00 Build 0)  -->
<svg version="1.1" id="Layer_1" xmlns="http://www.w3.org/2000/svg" xmlns:xlink="http://www.w3.org/1999/xlink" x="0px" y="0px"
	 viewBox="0 0 24 24" enable-background="new 0 0 24 24" xml:space="preserve">
<g>
	<path fill="#5965e0" d="M22.9961624,1.4693007c-0.0117168-0.1962891-0.1376762-0.3671875-0.3222237-0.4370117
		c-0.1845455-0.0693359-0.3915501-0.0253906-0.5302048,0.1142578c-2.9986324,2.9990234-5.7736626,4.2275391-8.2215862,5.3115234
		l-0.1152201,0.0512695c-0.1288891,0.0566406-0.2275095,0.1655273-0.2724247,0.2988281l-0.0751858,0.2280273
		c-0.1445122-0.1533203-0.3759279-0.203125-0.5731678-0.1123047c-1.3728685,0.6279297-2.8170166,1.3749995-4.0736885,2.5756831
		C8.7177458,9.590394,8.6620893,9.715394,8.6581841,9.84723c-0.0078115,0.3022461,0.0175753,0.6049805,0.0781145,0.9057617
		c-0.0771389-0.0522461-0.15623-0.1132813-0.2372742-0.1821289c-0.1044779-0.0888672-0.2392263-0.1308594-0.375927-0.1162109
		c-0.1367016,0.0141602-0.2607088,0.0834961-0.3437057,0.1918945c-2.4932671,3.2341309-2.7544637,7.3031626-2.7774711,7.7846689
		c-1.0931804,1.0058594-2.354491,2.2139893-3.8554554,3.715332c-0.195287,0.1953125-0.195287,0.5117188,0,0.7070313
		c0.0976436,0.0976563,0.2255566,0.1464844,0.3534697,0.1464844s0.255826-0.0488281,0.3534696-0.1464844
		c1.522385-1.5227661,2.7968774-2.7424316,3.8961-3.7515869c0.2544222,0.060791,0.6038642,0.1168213,1.0593104,0.1168213
		c1.7624655,0,5.0061846-0.828125,9.5427036-5.3652353C23.2480831,6.9561172,23.0098324,1.6904922,22.9961624,1.4693007z"/>
	<path fill="#fff" d="M15.6445799,13.1465464c-4.4203844,4.4201059-7.4425745,5.0823374-8.9072285,5.0631723
		c1.9836287-1.7619629,3.3433156-2.7801523,4.5972419-3.7174692c1.7868767-1.3349609,3.4751339-2.5961914,6.5167303-5.6386719
		c0.1952877-0.1953125,0.1952877-0.5117188,0-0.7070313c-0.1952877-0.195312-0.511652-0.195312-0.7069397,0
		c-2.9908218,2.9912109-4.6507616,4.2314453-6.4083462,5.5449219c-1.2627144,0.9436646-2.6313105,1.968689-4.6177464,3.7305307
		c0.199254-1.3484497,0.7312894-3.7132578,2.1649408-5.7720346c0.4198666,0.2602539,0.8299704,0.375,1.2508135,0.3491211
		c0.163065-0.0117188,0.3095303-0.1020508,0.3935032-0.2416992c0.0839739-0.1401367,0.0947151-0.3125,0.0273409-0.4614258
		c-0.1796646-0.4033203-0.2792606-0.8125-0.2958603-1.2192383c0.9305429-0.8491211,1.9606829-1.4467773,3.178298-2.0268555
		c0.1171722,0.3178711,0.1728287,0.5571289,0.1738052,0.5605469c0.0488214,0.21875,0.2382498,0.3779297,0.4628305,0.3886719
		c0.219698,0.0146484,0.4276791-0.128418,0.4989586-0.3408203l0.4403725-1.3242183
		c2.2428713-0.9926758,4.7474298-2.1171875,7.4648485-4.5581055C21.5422497,4.6582656,20.2855778,8.5049448,15.6445799,13.1465464z"
		/>
	<path opacity="0.1" fill="#010101" d="M17,10.000062c-3.5465088,4.0849609-7.0148926,6.2686167-9.1659546,7.2577524
		c-0.3460083,0.2941895-0.7062378,0.6051025-1.0966797,0.9519043c1.4646606,0.019165,4.4868164-0.6430664,8.9072266-5.0631723
		c4.3777466-4.3782959,5.7432251-8.0474243,6.1660767-10.0296631C20.7861328,5.0886245,19.2783813,7.3751845,17,10.000062z"/>
	<linearGradient id="SVGID_1_" gradientUnits="userSpaceOnUse" x1="6.9435763" y1="9.6429081" x2="17.8690281" y2="14.7375298">
		<stop  offset="0" style="stop-color:#FFFFFF;stop-opacity:0.2"/>
		<stop  offset="1" style="stop-color:#FFFFFF;stop-opacity:0"/>
	</linearGradient>
	<path fill="url(#SVGID_1_)" d="M22.9961624,1.4693007c-0.0117168-0.1962891-0.1376762-0.3671875-0.3222237-0.4370117
		c-0.1845455-0.0693359-0.3915501-0.0253906-0.5302048,0.1142578c-2.9986324,2.9990234-5.7736626,4.2275391-8.2215862,5.3115234
		l-0.1152201,0.0512695c-0.1288891,0.0566406-0.2275095,0.1655273-0.2724247,0.2988281l-0.0751858,0.2280273
		c-0.1445122-0.1533203-0.3759279-0.203125-0.5731678-0.1123047c-1.3728685,0.6279297-2.8170166,1.3749995-4.0736885,2.5756831
		C8.7177458,9.590394,8.6620893,9.715394,8.6581841,9.84723c-0.0078115,0.3022461,0.0175753,0.6049805,0.0781145,0.9057617
		c-0.0771389-0.0522461-0.15623-0.1132813-0.2372742-0.1821289c-0.1044779-0.0888672-0.2392263-0.1308594-0.375927-0.1162109
		c-0.1367016,0.0141602-0.2607088,0.0834961-0.3437057,0.1918945c-2.4932671,3.2341309-2.7544637,7.3031626-2.7774711,7.7846689
		c-1.0931804,1.0058594-2.354491,2.2139893-3.8554554,3.715332c-0.195287,0.1953125-0.195287,0.5117188,0,0.7070313
		c0.0976436,0.0976563,0.2255566,0.1464844,0.3534697,0.1464844s0.255826-0.0488281,0.3534696-0.1464844
		c1.522385-1.5227661,2.7968774-2.7424316,3.8961-3.7515869c0.2544222,0.060791,0.6038642,0.1168213,1.0593104,0.1168213
		c1.7624655,0,5.0061846-0.828125,9.5427036-5.3652353C23.2480831,6.9561172,23.0098324,1.6904922,22.9961624,1.4693007z"/>
</g>
<g>
</g>
<g>
</g>
<g>
</g>
<g>
</g>
<g>
</g>
<g>
</g>
<g>
</g>
<g>
</g>
<g>
</g>
<g>
</g>
<g>
</g>
<g>
</g>
<g>
</g>
<g>
</g>
<g>
</g>
</svg>
